<svg xmlns="http://www.w3.org/2000/svg" width="1180" height="297" viewBox="0 0 1180 297">
<rect width="100%" height="100%" fill="white"/>
<text x="24" y="34" font-family="Arial, sans-serif" font-size="20" font-weight="700" fill="#263238">Target plant presence and highest response</text>
<text x="24" y="90" font-family="Arial, sans-serif" font-size="12" fill="#263238">Demo plant A present</text>
<rect x="330" y="75" width="720" height="21" rx="3" fill="#a1d99b"/>
<text x="1058" y="90" font-family="Arial, sans-serif" font-size="12" fill="#263238">2</text>
<text x="24" y="120" font-family="Arial, sans-serif" font-size="12" fill="#263238">Demo plant A absent</text>
<rect x="330" y="105" width="360" height="21" rx="3" fill="#f2a7a7"/>
<text x="698" y="120" font-family="Arial, sans-serif" font-size="12" fill="#263238">1</text>
<text x="24" y="150" font-family="Arial, sans-serif" font-size="12" fill="#263238">Demo plant B present</text>
<rect x="330" y="135" width="720" height="21" rx="3" fill="#a1d99b"/>
<text x="1058" y="150" font-family="Arial, sans-serif" font-size="12" fill="#263238">2</text>
<text x="24" y="180" font-family="Arial, sans-serif" font-size="12" fill="#263238">Demo plant B absent</text>
<rect x="330" y="165" width="360" height="21" rx="3" fill="#f2a7a7"/>
<text x="698" y="180" font-family="Arial, sans-serif" font-size="12" fill="#263238">1</text>
<text x="24" y="210" font-family="Arial, sans-serif" font-size="12" fill="#263238">Demo plant A highest response</text>
<rect x="330" y="195" width="0" height="21" rx="3" fill="#f4b6c2"/>
<text x="338" y="210" font-family="Arial, sans-serif" font-size="12" fill="#263238">0</text>
<text x="24" y="240" font-family="Arial, sans-serif" font-size="12" fill="#263238">Demo plant B highest response</text>
<rect x="330" y="225" width="360" height="21" rx="3" fill="#f4b6c2"/>
<text x="698" y="240" font-family="Arial, sans-serif" font-size="12" fill="#263238">1</text>
</svg>